<?plantuml 1.2026.2?><svg xmlns="http://www.w3.org/2000/svg" xmlns:xlink="http://www.w3.org/1999/xlink" contentStyleType="text/css" data-diagram-type="CLASS" height="1413px" preserveAspectRatio="none" style="width:1585px;height:1413px;background:#FFFFFF;" version="1.1" viewBox="0 0 1585 1413" width="1585px" zoomAndPan="magnify"><defs/><g><!--class UsuarioModel--><g class="entity" data-qualified-name="UsuarioModel" data-source-line="3" id="ent0002"><rect fill="#F1F1F1" height="171.2656" rx="2.5" ry="2.5" style="stroke:#181818;stroke-width:0.5;" width="169.5684" x="359.01" y="239"/><ellipse cx="397.0483" cy="255" fill="#ADD1B2" rx="11" ry="11" style="stroke:#181818;stroke-width:1;"/><path d="M399.814,250.875 Q399.9702,250.6563 400.1577,250.5469 Q400.3452,250.4375 400.564,250.4375 Q400.939,250.4375 401.1733,250.7031 Q401.4077,250.9531 401.4077,251.5625 L401.4077,253.0156 Q401.4077,253.625 401.1733,253.8906 Q400.939,254.1563 400.564,254.1563 Q400.2202,254.1563 400.0171,253.9531 Q399.814,253.7656 399.7046,253.25 Q399.6577,252.8906 399.4702,252.7031 Q399.1421,252.3281 398.5327,252.1094 Q397.9233,251.8906 397.2983,251.8906 Q396.5327,251.8906 395.8921,252.2188 Q395.2671,252.5469 394.7671,253.2969 Q394.2827,254.0469 394.2827,255.0781 L394.2827,256.1719 Q394.2827,257.4063 395.1733,258.2344 Q396.064,259.0469 397.6577,259.0469 Q398.5952,259.0469 399.2515,258.7969 Q399.6421,258.6406 400.064,258.2031 Q400.3296,257.9375 400.4702,257.8594 Q400.6265,257.7813 400.8296,257.7813 Q401.1577,257.7813 401.4077,258.0469 Q401.6733,258.2969 401.6733,258.6406 Q401.6733,258.9844 401.3296,259.3906 Q400.8296,259.9688 400.0327,260.2969 Q398.9546,260.75 397.6577,260.75 Q396.1421,260.75 394.939,260.125 Q393.9546,259.625 393.2671,258.5625 Q392.5796,257.4844 392.5796,256.2031 L392.5796,255.0469 Q392.5796,253.7188 393.189,252.5781 Q393.814,251.4219 394.9077,250.8125 Q396.0015,250.1875 397.2358,250.1875 Q397.9702,250.1875 398.6108,250.3594 Q399.2671,250.5156 399.814,250.875 Z " fill="#000000"/><text fill="#000000" font-family="sans-serif" font-size="14" lengthAdjust="spacing" textLength="86.3721" x="416.168" y="260.7285">UsuarioModel</text><line style="stroke:#181818;stroke-width:0.5;" x1="360.01" x2="527.5784" y1="271" y2="271"/><text fill="#000000" font-family="sans-serif" font-size="14" lengthAdjust="spacing" textLength="37.748" x="365.01" y="289.5332">+int id</text><text fill="#000000" font-family="sans-serif" font-size="14" lengthAdjust="spacing" textLength="81.3203" x="365.01" y="307.1426">+string nome</text><text fill="#000000" font-family="sans-serif" font-size="14" lengthAdjust="spacing" textLength="79.7549" x="365.01" y="324.752">+string email</text><text fill="#000000" font-family="sans-serif" font-size="14" lengthAdjust="spacing" textLength="84.4443" x="365.01" y="342.3613">+string senha</text><text fill="#000000" font-family="sans-serif" font-size="14" lengthAdjust="spacing" textLength="96.1201" x="365.01" y="359.9707">+string telefone</text><text fill="#000000" font-family="sans-serif" font-size="14" lengthAdjust="spacing" textLength="121.8096" x="365.01" y="377.5801">+int tipo_usuario_id</text><text fill="#000000" font-family="sans-serif" font-size="14" lengthAdjust="spacing" textLength="157.5684" x="365.01" y="395.1895">+string url_imagem_perfil</text><line style="stroke:#181818;stroke-width:0.5;" x1="360.01" x2="527.5784" y1="402.2656" y2="402.2656"/></g><!--class FuncionarioModel--><g class="entity" data-qualified-name="FuncionarioModel" data-source-line="13" id="ent0003"><rect fill="#F1F1F1" height="136.0469" rx="2.5" ry="2.5" style="stroke:#181818;stroke-width:0.5;" width="143.2822" x="297.51" y="523"/><ellipse cx="312.51" cy="539" fill="#ADD1B2" rx="11" ry="11" style="stroke:#181818;stroke-width:1;"/><path d="M315.2756,534.875 Q315.4319,534.6563 315.6194,534.5469 Q315.8069,534.4375 316.0256,534.4375 Q316.4006,534.4375 316.635,534.7031 Q316.8694,534.9531 316.8694,535.5625 L316.8694,537.0156 Q316.8694,537.625 316.635,537.8906 Q316.4006,538.1563 316.0256,538.1563 Q315.6819,538.1563 315.4788,537.9531 Q315.2756,537.7656 315.1663,537.25 Q315.1194,536.8906 314.9319,536.7031 Q314.6038,536.3281 313.9944,536.1094 Q313.385,535.8906 312.76,535.8906 Q311.9944,535.8906 311.3538,536.2188 Q310.7288,536.5469 310.2288,537.2969 Q309.7444,538.0469 309.7444,539.0781 L309.7444,540.1719 Q309.7444,541.4063 310.635,542.2344 Q311.5256,543.0469 313.1194,543.0469 Q314.0569,543.0469 314.7131,542.7969 Q315.1038,542.6406 315.5256,542.2031 Q315.7913,541.9375 315.9319,541.8594 Q316.0881,541.7813 316.2913,541.7813 Q316.6194,541.7813 316.8694,542.0469 Q317.135,542.2969 317.135,542.6406 Q317.135,542.9844 316.7913,543.3906 Q316.2913,543.9688 315.4944,544.2969 Q314.4163,544.75 313.1194,544.75 Q311.6038,544.75 310.4006,544.125 Q309.4163,543.625 308.7288,542.5625 Q308.0413,541.4844 308.0413,540.2031 L308.0413,539.0469 Q308.0413,537.7188 308.6506,536.5781 Q309.2756,535.4219 310.3694,534.8125 Q311.4631,534.1875 312.6975,534.1875 Q313.4319,534.1875 314.0725,534.3594 Q314.7288,534.5156 315.2756,534.875 Z " fill="#000000"/><text fill="#000000" font-family="sans-serif" font-size="14" lengthAdjust="spacing" textLength="111.2822" x="326.51" y="544.7285">FuncionarioModel</text><line style="stroke:#181818;stroke-width:0.5;" x1="298.51" x2="439.7922" y1="555" y2="555"/><text fill="#000000" font-family="sans-serif" font-size="14" lengthAdjust="spacing" textLength="37.748" x="303.51" y="573.5332">+int id</text><text fill="#000000" font-family="sans-serif" font-size="14" lengthAdjust="spacing" textLength="91.4512" x="303.51" y="591.1426">+int usuario_id</text><text fill="#000000" font-family="sans-serif" font-size="14" lengthAdjust="spacing" textLength="128.8096" x="303.51" y="608.752">+int tipo_usuarios_id</text><text fill="#000000" font-family="sans-serif" font-size="14" lengthAdjust="spacing" textLength="98.4648" x="303.51" y="626.3613">+bool has_ativo</text><text fill="#000000" font-family="sans-serif" font-size="14" lengthAdjust="spacing" textLength="101.5479" x="303.51" y="643.9707">+decimal salario</text><line style="stroke:#181818;stroke-width:0.5;" x1="298.51" x2="439.7922" y1="651.0469" y2="651.0469"/></g><!--class PedidoModel--><g class="entity" data-qualified-name="PedidoModel" data-source-line="21" id="ent0004"><rect fill="#F1F1F1" height="224.0938" rx="2.5" ry="2.5" style="stroke:#181818;stroke-width:0.5;" width="225.6299" x="398.01" y="772"/><ellipse cx="465.7131" cy="788" fill="#ADD1B2" rx="11" ry="11" style="stroke:#181818;stroke-width:1;"/><path d="M468.4788,783.875 Q468.635,783.6563 468.8225,783.5469 Q469.01,783.4375 469.2288,783.4375 Q469.6038,783.4375 469.8381,783.7031 Q470.0725,783.9531 470.0725,784.5625 L470.0725,786.0156 Q470.0725,786.625 469.8381,786.8906 Q469.6038,787.1563 469.2288,787.1563 Q468.885,787.1563 468.6819,786.9531 Q468.4788,786.7656 468.3694,786.25 Q468.3225,785.8906 468.135,785.7031 Q467.8069,785.3281 467.1975,785.1094 Q466.5881,784.8906 465.9631,784.8906 Q465.1975,784.8906 464.5569,785.2188 Q463.9319,785.5469 463.4319,786.2969 Q462.9475,787.0469 462.9475,788.0781 L462.9475,789.1719 Q462.9475,790.4063 463.8381,791.2344 Q464.7288,792.0469 466.3225,792.0469 Q467.26,792.0469 467.9163,791.7969 Q468.3069,791.6406 468.7288,791.2031 Q468.9944,790.9375 469.135,790.8594 Q469.2913,790.7813 469.4944,790.7813 Q469.8225,790.7813 470.0725,791.0469 Q470.3381,791.2969 470.3381,791.6406 Q470.3381,791.9844 469.9944,792.3906 Q469.4944,792.9688 468.6975,793.2969 Q467.6194,793.75 466.3225,793.75 Q464.8069,793.75 463.6038,793.125 Q462.6194,792.625 461.9319,791.5625 Q461.2444,790.4844 461.2444,789.2031 L461.2444,788.0469 Q461.2444,786.7188 461.8538,785.5781 Q462.4788,784.4219 463.5725,783.8125 Q464.6663,783.1875 465.9006,783.1875 Q466.635,783.1875 467.2756,783.3594 Q467.9319,783.5156 468.4788,783.875 Z " fill="#000000"/><text fill="#000000" font-family="sans-serif" font-size="14" lengthAdjust="spacing" textLength="81.7236" x="486.2131" y="793.7285">PedidoModel</text><line style="stroke:#181818;stroke-width:0.5;" x1="399.01" x2="622.6399" y1="804" y2="804"/><text fill="#000000" font-family="sans-serif" font-size="14" lengthAdjust="spacing" textLength="37.748" x="404.01" y="822.5332">+int id</text><text fill="#000000" font-family="sans-serif" font-size="14" lengthAdjust="spacing" textLength="91.4512" x="404.01" y="840.1426">+int usuario_id</text><text fill="#000000" font-family="sans-serif" font-size="14" lengthAdjust="spacing" textLength="99.2305" x="404.01" y="857.752">+int motoboy_id</text><text fill="#000000" font-family="sans-serif" font-size="14" lengthAdjust="spacing" textLength="213.6299" x="404.01" y="875.3613">+datetime motoboy_vinculado_em</text><text fill="#000000" font-family="sans-serif" font-size="14" lengthAdjust="spacing" textLength="79.7686" x="404.01" y="892.9707">+int mesa_id</text><text fill="#000000" font-family="sans-serif" font-size="14" lengthAdjust="spacing" textLength="82.8857" x="404.01" y="910.5801">+int status_id</text><text fill="#000000" font-family="sans-serif" font-size="14" lengthAdjust="spacing" textLength="145.9473" x="404.01" y="928.1895">+int tipo_pagamento_id</text><text fill="#000000" font-family="sans-serif" font-size="14" lengthAdjust="spacing" textLength="124.8994" x="404.01" y="945.7988">+decimal valor_total</text><text fill="#000000" font-family="sans-serif" font-size="14" lengthAdjust="spacing" textLength="203.5195" x="404.01" y="963.4082">+string observacoes_pagamento</text><text fill="#000000" font-family="sans-serif" font-size="14" lengthAdjust="spacing" textLength="103.9131" x="404.01" y="981.0176">+int endereco_id</text><line style="stroke:#181818;stroke-width:0.5;" x1="399.01" x2="622.6399" y1="988.0938" y2="988.0938"/></g><!--class ItemPedidoModel--><g class="entity" data-qualified-name="ItemPedidoModel" data-source-line="34" id="ent0005"><rect fill="#F1F1F1" height="206.4844" rx="2.5" ry="2.5" style="stroke:#181818;stroke-width:0.5;" width="184.3887" x="777.01" y="488"/><ellipse cx="811.5569" cy="504" fill="#ADD1B2" rx="11" ry="11" style="stroke:#181818;stroke-width:1;"/><path d="M814.3225,499.875 Q814.4788,499.6563 814.6663,499.5469 Q814.8538,499.4375 815.0725,499.4375 Q815.4475,499.4375 815.6819,499.7031 Q815.9163,499.9531 815.9163,500.5625 L815.9163,502.0156 Q815.9163,502.625 815.6819,502.8906 Q815.4475,503.1563 815.0725,503.1563 Q814.7288,503.1563 814.5256,502.9531 Q814.3225,502.7656 814.2131,502.25 Q814.1663,501.8906 813.9788,501.7031 Q813.6506,501.3281 813.0413,501.1094 Q812.4319,500.8906 811.8069,500.8906 Q811.0413,500.8906 810.4006,501.2188 Q809.7756,501.5469 809.2756,502.2969 Q808.7913,503.0469 808.7913,504.0781 L808.7913,505.1719 Q808.7913,506.4063 809.6819,507.2344 Q810.5725,508.0469 812.1663,508.0469 Q813.1038,508.0469 813.76,507.7969 Q814.1506,507.6406 814.5725,507.2031 Q814.8381,506.9375 814.9788,506.8594 Q815.135,506.7813 815.3381,506.7813 Q815.6663,506.7813 815.9163,507.0469 Q816.1819,507.2969 816.1819,507.6406 Q816.1819,507.9844 815.8381,508.3906 Q815.3381,508.9688 814.5413,509.2969 Q813.4631,509.75 812.1663,509.75 Q810.6506,509.75 809.4475,509.125 Q808.4631,508.625 807.7756,507.5625 Q807.0881,506.4844 807.0881,505.2031 L807.0881,504.0469 Q807.0881,502.7188 807.6975,501.5781 Q808.3225,500.4219 809.4163,499.8125 Q810.51,499.1875 811.7444,499.1875 Q812.4788,499.1875 813.1194,499.3594 Q813.7756,499.5156 814.3225,499.875 Z " fill="#000000"/><text fill="#000000" font-family="sans-serif" font-size="14" lengthAdjust="spacing" textLength="108.9512" x="829.9006" y="509.7285">ItemPedidoModel</text><line style="stroke:#181818;stroke-width:0.5;" x1="778.01" x2="960.3987" y1="520" y2="520"/><text fill="#000000" font-family="sans-serif" font-size="14" lengthAdjust="spacing" textLength="37.748" x="783.01" y="538.5332">+int id</text><text fill="#000000" font-family="sans-serif" font-size="14" lengthAdjust="spacing" textLength="149.0303" x="783.01" y="556.1426">+decimal preco_unitario</text><text fill="#000000" font-family="sans-serif" font-size="14" lengthAdjust="spacing" textLength="129.582" x="783.01" y="573.752">+decimal valor_pago</text><text fill="#000000" font-family="sans-serif" font-size="14" lengthAdjust="spacing" textLength="96.1406" x="783.01" y="591.3613">+int quantidade</text><text fill="#000000" font-family="sans-serif" font-size="14" lengthAdjust="spacing" textLength="172.3887" x="783.01" y="608.9707">+string status_da_comanda</text><text fill="#000000" font-family="sans-serif" font-size="14" lengthAdjust="spacing" textLength="124.1406" x="783.01" y="626.5801">+datetime pago_em</text><text fill="#000000" font-family="sans-serif" font-size="14" lengthAdjust="spacing" textLength="170.8369" x="783.01" y="644.1895">+string pagamento_metodo</text><text fill="#000000" font-family="sans-serif" font-size="14" lengthAdjust="spacing" textLength="93.0166" x="783.01" y="661.7988">+int produto_id</text><text fill="#000000" font-family="sans-serif" font-size="14" lengthAdjust="spacing" textLength="87.5752" x="783.01" y="679.4082">+int pedido_id</text><line style="stroke:#181818;stroke-width:0.5;" x1="778.01" x2="960.3987" y1="686.4844" y2="686.4844"/></g><!--class ProdutoModel--><g class="entity" data-qualified-name="ProdutoModel" data-source-line="46" id="ent0006"><rect fill="#F1F1F1" height="171.2656" rx="2.5" ry="2.5" style="stroke:#181818;stroke-width:0.5;" width="131.4375" x="911.51" y="798.5"/><ellipse cx="932.0326" cy="814.5" fill="#ADD1B2" rx="11" ry="11" style="stroke:#181818;stroke-width:1;"/><path d="M934.7982,810.375 Q934.9545,810.1563 935.142,810.0469 Q935.3295,809.9375 935.5482,809.9375 Q935.9232,809.9375 936.1576,810.2031 Q936.392,810.4531 936.392,811.0625 L936.392,812.5156 Q936.392,813.125 936.1576,813.3906 Q935.9232,813.6563 935.5482,813.6563 Q935.2045,813.6563 935.0014,813.4531 Q934.7982,813.2656 934.6889,812.75 Q934.642,812.3906 934.4545,812.2031 Q934.1264,811.8281 933.517,811.6094 Q932.9076,811.3906 932.2826,811.3906 Q931.517,811.3906 930.8764,811.7188 Q930.2514,812.0469 929.7514,812.7969 Q929.267,813.5469 929.267,814.5781 L929.267,815.6719 Q929.267,816.9063 930.1576,817.7344 Q931.0482,818.5469 932.642,818.5469 Q933.5795,818.5469 934.2357,818.2969 Q934.6264,818.1406 935.0482,817.7031 Q935.3139,817.4375 935.4545,817.3594 Q935.6107,817.2813 935.8139,817.2813 Q936.142,817.2813 936.392,817.5469 Q936.6576,817.7969 936.6576,818.1406 Q936.6576,818.4844 936.3139,818.8906 Q935.8139,819.4688 935.017,819.7969 Q933.9389,820.25 932.642,820.25 Q931.1264,820.25 929.9232,819.625 Q928.9389,819.125 928.2514,818.0625 Q927.5639,816.9844 927.5639,815.7031 L927.5639,814.5469 Q927.5639,813.2188 928.1732,812.0781 Q928.7982,810.9219 929.892,810.3125 Q930.9857,809.6875 932.2201,809.6875 Q932.9545,809.6875 933.5951,809.8594 Q934.2514,810.0156 934.7982,810.375 Z " fill="#000000"/><text fill="#000000" font-family="sans-serif" font-size="14" lengthAdjust="spacing" textLength="87.165" x="947.2599" y="820.2285">ProdutoModel</text><line style="stroke:#181818;stroke-width:0.5;" x1="912.51" x2="1041.9475" y1="830.5" y2="830.5"/><text fill="#000000" font-family="sans-serif" font-size="14" lengthAdjust="spacing" textLength="37.748" x="917.51" y="849.0332">+int id</text><text fill="#000000" font-family="sans-serif" font-size="14" lengthAdjust="spacing" textLength="81.3203" x="917.51" y="866.6426">+string nome</text><text fill="#000000" font-family="sans-serif" font-size="14" lengthAdjust="spacing" textLength="95.3271" x="917.51" y="884.252">+decimal preco</text><text fill="#000000" font-family="sans-serif" font-size="14" lengthAdjust="spacing" textLength="106.2168" x="917.51" y="901.8613">+string descricao</text><text fill="#000000" font-family="sans-serif" font-size="14" lengthAdjust="spacing" textLength="119.4375" x="917.51" y="919.4707">+string imagem_url</text><text fill="#000000" font-family="sans-serif" font-size="14" lengthAdjust="spacing" textLength="100.7959" x="917.51" y="937.0801">+bool disponivel</text><text fill="#000000" font-family="sans-serif" font-size="14" lengthAdjust="spacing" textLength="103.127" x="917.51" y="954.6895">+int categoria_id</text><line style="stroke:#181818;stroke-width:0.5;" x1="912.51" x2="1041.9475" y1="961.7656" y2="961.7656"/></g><!--class CategoriaProdutoModel--><g class="entity" data-qualified-name="CategoriaProdutoModel" data-source-line="56" id="ent0007"><rect fill="#F1F1F1" height="83.2188" rx="2.5" ry="2.5" style="stroke:#181818;stroke-width:0.5;" width="179.8682" x="887.01" y="1118"/><ellipse cx="902.01" cy="1134" fill="#ADD1B2" rx="11" ry="11" style="stroke:#181818;stroke-width:1;"/><path d="M904.7756,1129.875 Q904.9319,1129.6563 905.1194,1129.5469 Q905.3069,1129.4375 905.5256,1129.4375 Q905.9006,1129.4375 906.135,1129.7031 Q906.3694,1129.9531 906.3694,1130.5625 L906.3694,1132.0156 Q906.3694,1132.625 906.135,1132.8906 Q905.9006,1133.1563 905.5256,1133.1563 Q905.1819,1133.1563 904.9788,1132.9531 Q904.7756,1132.7656 904.6663,1132.25 Q904.6194,1131.8906 904.4319,1131.7031 Q904.1038,1131.3281 903.4944,1131.1094 Q902.885,1130.8906 902.26,1130.8906 Q901.4944,1130.8906 900.8538,1131.2188 Q900.2288,1131.5469 899.7288,1132.2969 Q899.2444,1133.0469 899.2444,1134.0781 L899.2444,1135.1719 Q899.2444,1136.4063 900.135,1137.2344 Q901.0256,1138.0469 902.6194,1138.0469 Q903.5569,1138.0469 904.2131,1137.7969 Q904.6038,1137.6406 905.0256,1137.2031 Q905.2913,1136.9375 905.4319,1136.8594 Q905.5881,1136.7813 905.7913,1136.7813 Q906.1194,1136.7813 906.3694,1137.0469 Q906.635,1137.2969 906.635,1137.6406 Q906.635,1137.9844 906.2913,1138.3906 Q905.7913,1138.9688 904.9944,1139.2969 Q903.9163,1139.75 902.6194,1139.75 Q901.1038,1139.75 899.9006,1139.125 Q898.9163,1138.625 898.2288,1137.5625 Q897.5413,1136.4844 897.5413,1135.2031 L897.5413,1134.0469 Q897.5413,1132.7188 898.1506,1131.5781 Q898.7756,1130.4219 899.8694,1129.8125 Q900.9631,1129.1875 902.1975,1129.1875 Q902.9319,1129.1875 903.5725,1129.3594 Q904.2288,1129.5156 904.7756,1129.875 Z " fill="#000000"/><text fill="#000000" font-family="sans-serif" font-size="14" lengthAdjust="spacing" textLength="147.8682" x="916.01" y="1139.7285">CategoriaProdutoModel</text><line style="stroke:#181818;stroke-width:0.5;" x1="888.01" x2="1065.8782" y1="1150" y2="1150"/><text fill="#000000" font-family="sans-serif" font-size="14" lengthAdjust="spacing" textLength="37.748" x="893.01" y="1168.5332">+int id</text><text fill="#000000" font-family="sans-serif" font-size="14" lengthAdjust="spacing" textLength="81.3203" x="893.01" y="1186.1426">+string nome</text><line style="stroke:#181818;stroke-width:0.5;" x1="888.01" x2="1065.8782" y1="1193.2188" y2="1193.2188"/></g><!--class CarrinhoModel--><g class="entity" data-qualified-name="CarrinhoModel" data-source-line="61" id="ent0008"><rect fill="#F1F1F1" height="153.6563" rx="2.5" ry="2.5" style="stroke:#181818;stroke-width:0.5;" width="141.5752" x="461.01" y="7"/><ellipse cx="483.9997" cy="23" fill="#ADD1B2" rx="11" ry="11" style="stroke:#181818;stroke-width:1;"/><path d="M486.7653,18.875 Q486.9216,18.6563 487.1091,18.5469 Q487.2966,18.4375 487.5153,18.4375 Q487.8903,18.4375 488.1247,18.7031 Q488.3591,18.9531 488.3591,19.5625 L488.3591,21.0156 Q488.3591,21.625 488.1247,21.8906 Q487.8903,22.1563 487.5153,22.1563 Q487.1716,22.1563 486.9684,21.9531 Q486.7653,21.7656 486.6559,21.25 Q486.6091,20.8906 486.4216,20.7031 Q486.0934,20.3281 485.4841,20.1094 Q484.8747,19.8906 484.2497,19.8906 Q483.4841,19.8906 482.8434,20.2188 Q482.2184,20.5469 481.7184,21.2969 Q481.2341,22.0469 481.2341,23.0781 L481.2341,24.1719 Q481.2341,25.4063 482.1247,26.2344 Q483.0153,27.0469 484.6091,27.0469 Q485.5466,27.0469 486.2028,26.7969 Q486.5934,26.6406 487.0153,26.2031 Q487.2809,25.9375 487.4216,25.8594 Q487.5778,25.7813 487.7809,25.7813 Q488.1091,25.7813 488.3591,26.0469 Q488.6247,26.2969 488.6247,26.6406 Q488.6247,26.9844 488.2809,27.3906 Q487.7809,27.9688 486.9841,28.2969 Q485.9059,28.75 484.6091,28.75 Q483.0934,28.75 481.8903,28.125 Q480.9059,27.625 480.2184,26.5625 Q479.5309,25.4844 479.5309,24.2031 L479.5309,23.0469 Q479.5309,21.7188 480.1403,20.5781 Q480.7653,19.4219 481.8591,18.8125 Q482.9528,18.1875 484.1872,18.1875 Q484.9216,18.1875 485.5622,18.3594 Q486.2184,18.5156 486.7653,18.875 Z " fill="#000000"/><text fill="#000000" font-family="sans-serif" font-size="14" lengthAdjust="spacing" textLength="91.8203" x="499.7752" y="28.7285">CarrinhoModel</text><line style="stroke:#181818;stroke-width:0.5;" x1="462.01" x2="601.5852" y1="39" y2="39"/><text fill="#000000" font-family="sans-serif" font-size="14" lengthAdjust="spacing" textLength="37.748" x="467.01" y="57.5332">+int id</text><text fill="#000000" font-family="sans-serif" font-size="14" lengthAdjust="spacing" textLength="91.4512" x="467.01" y="75.1426">+int usuario_id</text><text fill="#000000" font-family="sans-serif" font-size="14" lengthAdjust="spacing" textLength="93.0166" x="467.01" y="92.752">+int produto_id</text><text fill="#000000" font-family="sans-serif" font-size="14" lengthAdjust="spacing" textLength="96.1406" x="467.01" y="110.3613">+int quantidade</text><text fill="#000000" font-family="sans-serif" font-size="14" lengthAdjust="spacing" textLength="118.6787" x="467.01" y="127.9707">+string observacao</text><text fill="#000000" font-family="sans-serif" font-size="14" lengthAdjust="spacing" textLength="129.5752" x="467.01" y="145.5801">+decimal preco_total</text><line style="stroke:#181818;stroke-width:0.5;" x1="462.01" x2="601.5852" y1="152.6563" y2="152.6563"/></g><!--class MesaModel--><g class="entity" data-qualified-name="MesaModel" data-source-line="70" id="ent0009"><rect fill="#F1F1F1" height="118.4375" rx="2.5" ry="2.5" style="stroke:#181818;stroke-width:0.5;" width="151.6992" x="443.01" y="1100.5"/><ellipse cx="479.3103" cy="1116.5" fill="#ADD1B2" rx="11" ry="11" style="stroke:#181818;stroke-width:1;"/><path d="M482.0759,1112.375 Q482.2322,1112.1563 482.4197,1112.0469 Q482.6072,1111.9375 482.8259,1111.9375 Q483.2009,1111.9375 483.4353,1112.2031 Q483.6697,1112.4531 483.6697,1113.0625 L483.6697,1114.5156 Q483.6697,1115.125 483.4353,1115.3906 Q483.2009,1115.6563 482.8259,1115.6563 Q482.4822,1115.6563 482.279,1115.4531 Q482.0759,1115.2656 481.9665,1114.75 Q481.9197,1114.3906 481.7322,1114.2031 Q481.404,1113.8281 480.7947,1113.6094 Q480.1853,1113.3906 479.5603,1113.3906 Q478.7947,1113.3906 478.154,1113.7188 Q477.529,1114.0469 477.029,1114.7969 Q476.5447,1115.5469 476.5447,1116.5781 L476.5447,1117.6719 Q476.5447,1118.9063 477.4353,1119.7344 Q478.3259,1120.5469 479.9197,1120.5469 Q480.8572,1120.5469 481.5134,1120.2969 Q481.904,1120.1406 482.3259,1119.7031 Q482.5915,1119.4375 482.7322,1119.3594 Q482.8884,1119.2813 483.0915,1119.2813 Q483.4197,1119.2813 483.6697,1119.5469 Q483.9353,1119.7969 483.9353,1120.1406 Q483.9353,1120.4844 483.5915,1120.8906 Q483.0915,1121.4688 482.2947,1121.7969 Q481.2165,1122.25 479.9197,1122.25 Q478.404,1122.25 477.2009,1121.625 Q476.2165,1121.125 475.529,1120.0625 Q474.8415,1118.9844 474.8415,1117.7031 L474.8415,1116.5469 Q474.8415,1115.2188 475.4509,1114.0781 Q476.0759,1112.9219 477.1697,1112.3125 Q478.2634,1111.6875 479.4978,1111.6875 Q480.2322,1111.6875 480.8728,1111.8594 Q481.529,1112.0156 482.0759,1112.375 Z " fill="#000000"/><text fill="#000000" font-family="sans-serif" font-size="14" lengthAdjust="spacing" textLength="72.3652" x="498.0437" y="1122.2285">MesaModel</text><line style="stroke:#181818;stroke-width:0.5;" x1="444.01" x2="593.7092" y1="1132.5" y2="1132.5"/><text fill="#000000" font-family="sans-serif" font-size="14" lengthAdjust="spacing" textLength="37.748" x="449.01" y="1151.0332">+int id</text><text fill="#000000" font-family="sans-serif" font-size="14" lengthAdjust="spacing" textLength="139.6992" x="449.01" y="1168.6426">+int numero_da_mesa</text><text fill="#000000" font-family="sans-serif" font-size="14" lengthAdjust="spacing" textLength="83.6514" x="449.01" y="1186.252">+string status</text><text fill="#000000" font-family="sans-serif" font-size="14" lengthAdjust="spacing" textLength="95.3271" x="449.01" y="1203.8613">+decimal preco</text><line style="stroke:#181818;stroke-width:0.5;" x1="444.01" x2="593.7092" y1="1210.9375" y2="1210.9375"/></g><!--class EnderecoModel--><g class="entity" data-qualified-name="EnderecoModel" data-source-line="77" id="ent0010"><rect fill="#F1F1F1" height="171.2656" rx="2.5" ry="2.5" style="stroke:#181818;stroke-width:0.5;" width="142.3408" x="95.01" y="1074"/><ellipse cx="115.5357" cy="1090" fill="#ADD1B2" rx="11" ry="11" style="stroke:#181818;stroke-width:1;"/><path d="M118.3013,1085.875 Q118.4576,1085.6563 118.6451,1085.5469 Q118.8326,1085.4375 119.0513,1085.4375 Q119.4263,1085.4375 119.6607,1085.7031 Q119.8951,1085.9531 119.8951,1086.5625 L119.8951,1088.0156 Q119.8951,1088.625 119.6607,1088.8906 Q119.4263,1089.1563 119.0513,1089.1563 Q118.7076,1089.1563 118.5044,1088.9531 Q118.3013,1088.7656 118.1919,1088.25 Q118.1451,1087.8906 117.9576,1087.7031 Q117.6294,1087.3281 117.0201,1087.1094 Q116.4107,1086.8906 115.7857,1086.8906 Q115.0201,1086.8906 114.3794,1087.2188 Q113.7544,1087.5469 113.2544,1088.2969 Q112.7701,1089.0469 112.7701,1090.0781 L112.7701,1091.1719 Q112.7701,1092.4063 113.6607,1093.2344 Q114.5513,1094.0469 116.1451,1094.0469 Q117.0826,1094.0469 117.7388,1093.7969 Q118.1294,1093.6406 118.5513,1093.2031 Q118.8169,1092.9375 118.9576,1092.8594 Q119.1138,1092.7813 119.3169,1092.7813 Q119.6451,1092.7813 119.8951,1093.0469 Q120.1607,1093.2969 120.1607,1093.6406 Q120.1607,1093.9844 119.8169,1094.3906 Q119.3169,1094.9688 118.5201,1095.2969 Q117.4419,1095.75 116.1451,1095.75 Q114.6294,1095.75 113.4263,1095.125 Q112.4419,1094.625 111.7544,1093.5625 Q111.0669,1092.4844 111.0669,1091.2031 L111.0669,1090.0469 Q111.0669,1088.7188 111.6763,1087.5781 Q112.3013,1086.4219 113.3951,1085.8125 Q114.4888,1085.1875 115.7232,1085.1875 Q116.4576,1085.1875 117.0982,1085.3594 Q117.7544,1085.5156 118.3013,1085.875 Z " fill="#000000"/><text fill="#000000" font-family="sans-serif" font-size="14" lengthAdjust="spacing" textLength="98.0615" x="130.7636" y="1095.7285">EnderecoModel</text><line style="stroke:#181818;stroke-width:0.5;" x1="96.01" x2="236.3508" y1="1106" y2="1106"/><text fill="#000000" font-family="sans-serif" font-size="14" lengthAdjust="spacing" textLength="37.748" x="101.01" y="1124.5332">+int id</text><text fill="#000000" font-family="sans-serif" font-size="14" lengthAdjust="spacing" textLength="113.2373" x="101.01" y="1142.1426">+string logradouro</text><text fill="#000000" font-family="sans-serif" font-size="14" lengthAdjust="spacing" textLength="93.7686" x="101.01" y="1159.752">+string numero</text><text fill="#000000" font-family="sans-serif" font-size="14" lengthAdjust="spacing" textLength="130.3408" x="101.01" y="1177.3613">+string complemento</text><text fill="#000000" font-family="sans-serif" font-size="14" lengthAdjust="spacing" textLength="82.0928" x="101.01" y="1194.9707">+string bairro</text><text fill="#000000" font-family="sans-serif" font-size="14" lengthAdjust="spacing" textLength="86.7891" x="101.01" y="1212.5801">+int cidade_id</text><text fill="#000000" font-family="sans-serif" font-size="14" lengthAdjust="spacing" textLength="91.4512" x="101.01" y="1230.1895">+int usuario_id</text><line style="stroke:#181818;stroke-width:0.5;" x1="96.01" x2="236.3508" y1="1237.2656" y2="1237.2656"/></g><!--class CidadeModel--><g class="entity" data-qualified-name="CidadeModel" data-source-line="87" id="ent0011"><rect fill="#F1F1F1" height="83.2188" rx="2.5" ry="2.5" style="stroke:#181818;stroke-width:0.5;" width="114.4961" x="109.01" y="1323"/><ellipse cx="124.01" cy="1339" fill="#ADD1B2" rx="11" ry="11" style="stroke:#181818;stroke-width:1;"/><path d="M126.7756,1334.875 Q126.9319,1334.6563 127.1194,1334.5469 Q127.3069,1334.4375 127.5256,1334.4375 Q127.9006,1334.4375 128.135,1334.7031 Q128.3694,1334.9531 128.3694,1335.5625 L128.3694,1337.0156 Q128.3694,1337.625 128.135,1337.8906 Q127.9006,1338.1563 127.5256,1338.1563 Q127.1819,1338.1563 126.9787,1337.9531 Q126.7756,1337.7656 126.6662,1337.25 Q126.6194,1336.8906 126.4319,1336.7031 Q126.1037,1336.3281 125.4944,1336.1094 Q124.885,1335.8906 124.26,1335.8906 Q123.4944,1335.8906 122.8537,1336.2188 Q122.2287,1336.5469 121.7287,1337.2969 Q121.2444,1338.0469 121.2444,1339.0781 L121.2444,1340.1719 Q121.2444,1341.4063 122.135,1342.2344 Q123.0256,1343.0469 124.6194,1343.0469 Q125.5569,1343.0469 126.2131,1342.7969 Q126.6037,1342.6406 127.0256,1342.2031 Q127.2912,1341.9375 127.4319,1341.8594 Q127.5881,1341.7813 127.7912,1341.7813 Q128.1194,1341.7813 128.3694,1342.0469 Q128.635,1342.2969 128.635,1342.6406 Q128.635,1342.9844 128.2913,1343.3906 Q127.7912,1343.9688 126.9944,1344.2969 Q125.9162,1344.75 124.6194,1344.75 Q123.1037,1344.75 121.9006,1344.125 Q120.9162,1343.625 120.2287,1342.5625 Q119.5412,1341.4844 119.5412,1340.2031 L119.5412,1339.0469 Q119.5412,1337.7188 120.1506,1336.5781 Q120.7756,1335.4219 121.8694,1334.8125 Q122.9631,1334.1875 124.1975,1334.1875 Q124.9319,1334.1875 125.5725,1334.3594 Q126.2287,1334.5156 126.7756,1334.875 Z " fill="#000000"/><text fill="#000000" font-family="sans-serif" font-size="14" lengthAdjust="spacing" textLength="82.4961" x="138.01" y="1344.7285">CidadeModel</text><line style="stroke:#181818;stroke-width:0.5;" x1="110.01" x2="222.5061" y1="1355" y2="1355"/><text fill="#000000" font-family="sans-serif" font-size="14" lengthAdjust="spacing" textLength="37.748" x="115.01" y="1373.5332">+int id</text><text fill="#000000" font-family="sans-serif" font-size="14" lengthAdjust="spacing" textLength="81.3203" x="115.01" y="1391.1426">+string nome</text><line style="stroke:#181818;stroke-width:0.5;" x1="110.01" x2="222.5061" y1="1398.2188" y2="1398.2188"/></g><!--class FormaPagamentoModel--><g class="entity" data-qualified-name="FormaPagamentoModel" data-source-line="92" id="ent0012"><rect fill="#F1F1F1" height="83.2188" rx="2.5" ry="2.5" style="stroke:#181818;stroke-width:0.5;" width="182.1855" x="630.01" y="1118"/><ellipse cx="645.01" cy="1134" fill="#ADD1B2" rx="11" ry="11" style="stroke:#181818;stroke-width:1;"/><path d="M647.7756,1129.875 Q647.9319,1129.6563 648.1194,1129.5469 Q648.3069,1129.4375 648.5256,1129.4375 Q648.9006,1129.4375 649.135,1129.7031 Q649.3694,1129.9531 649.3694,1130.5625 L649.3694,1132.0156 Q649.3694,1132.625 649.135,1132.8906 Q648.9006,1133.1563 648.5256,1133.1563 Q648.1819,1133.1563 647.9788,1132.9531 Q647.7756,1132.7656 647.6663,1132.25 Q647.6194,1131.8906 647.4319,1131.7031 Q647.1038,1131.3281 646.4944,1131.1094 Q645.885,1130.8906 645.26,1130.8906 Q644.4944,1130.8906 643.8538,1131.2188 Q643.2288,1131.5469 642.7288,1132.2969 Q642.2444,1133.0469 642.2444,1134.0781 L642.2444,1135.1719 Q642.2444,1136.4063 643.135,1137.2344 Q644.0256,1138.0469 645.6194,1138.0469 Q646.5569,1138.0469 647.2131,1137.7969 Q647.6038,1137.6406 648.0256,1137.2031 Q648.2913,1136.9375 648.4319,1136.8594 Q648.5881,1136.7813 648.7913,1136.7813 Q649.1194,1136.7813 649.3694,1137.0469 Q649.635,1137.2969 649.635,1137.6406 Q649.635,1137.9844 649.2913,1138.3906 Q648.7913,1138.9688 647.9944,1139.2969 Q646.9163,1139.75 645.6194,1139.75 Q644.1038,1139.75 642.9006,1139.125 Q641.9163,1138.625 641.2288,1137.5625 Q640.5413,1136.4844 640.5413,1135.2031 L640.5413,1134.0469 Q640.5413,1132.7188 641.1506,1131.5781 Q641.7756,1130.4219 642.8694,1129.8125 Q643.9631,1129.1875 645.1975,1129.1875 Q645.9319,1129.1875 646.5725,1129.3594 Q647.2288,1129.5156 647.7756,1129.875 Z " fill="#000000"/><text fill="#000000" font-family="sans-serif" font-size="14" lengthAdjust="spacing" textLength="150.1855" x="659.01" y="1139.7285">FormaPagamentoModel</text><line style="stroke:#181818;stroke-width:0.5;" x1="631.01" x2="811.1955" y1="1150" y2="1150"/><text fill="#000000" font-family="sans-serif" font-size="14" lengthAdjust="spacing" textLength="37.748" x="636.01" y="1168.5332">+int id</text><text fill="#000000" font-family="sans-serif" font-size="14" lengthAdjust="spacing" textLength="146.7129" x="636.01" y="1186.1426">+string tipo_pagamento</text><line style="stroke:#181818;stroke-width:0.5;" x1="631.01" x2="811.1955" y1="1193.2188" y2="1193.2188"/></g><!--class StatusModel--><g class="entity" data-qualified-name="StatusModel" data-source-line="97" id="ent0013"><rect fill="#F1F1F1" height="83.2188" rx="2.5" ry="2.5" style="stroke:#181818;stroke-width:0.5;" width="109.8203" x="294.01" y="1118"/><ellipse cx="309.01" cy="1134" fill="#ADD1B2" rx="11" ry="11" style="stroke:#181818;stroke-width:1;"/><path d="M311.7756,1129.875 Q311.9319,1129.6563 312.1194,1129.5469 Q312.3069,1129.4375 312.5256,1129.4375 Q312.9006,1129.4375 313.135,1129.7031 Q313.3694,1129.9531 313.3694,1130.5625 L313.3694,1132.0156 Q313.3694,1132.625 313.135,1132.8906 Q312.9006,1133.1563 312.5256,1133.1563 Q312.1819,1133.1563 311.9788,1132.9531 Q311.7756,1132.7656 311.6663,1132.25 Q311.6194,1131.8906 311.4319,1131.7031 Q311.1038,1131.3281 310.4944,1131.1094 Q309.885,1130.8906 309.26,1130.8906 Q308.4944,1130.8906 307.8538,1131.2188 Q307.2288,1131.5469 306.7288,1132.2969 Q306.2444,1133.0469 306.2444,1134.0781 L306.2444,1135.1719 Q306.2444,1136.4063 307.135,1137.2344 Q308.0256,1138.0469 309.6194,1138.0469 Q310.5569,1138.0469 311.2131,1137.7969 Q311.6038,1137.6406 312.0256,1137.2031 Q312.2913,1136.9375 312.4319,1136.8594 Q312.5881,1136.7813 312.7913,1136.7813 Q313.1194,1136.7813 313.3694,1137.0469 Q313.635,1137.2969 313.635,1137.6406 Q313.635,1137.9844 313.2913,1138.3906 Q312.7913,1138.9688 311.9944,1139.2969 Q310.9163,1139.75 309.6194,1139.75 Q308.1038,1139.75 306.9006,1139.125 Q305.9163,1138.625 305.2288,1137.5625 Q304.5413,1136.4844 304.5413,1135.2031 L304.5413,1134.0469 Q304.5413,1132.7188 305.1506,1131.5781 Q305.7756,1130.4219 306.8694,1129.8125 Q307.9631,1129.1875 309.1975,1129.1875 Q309.9319,1129.1875 310.5725,1129.3594 Q311.2288,1129.5156 311.7756,1129.875 Z " fill="#000000"/><text fill="#000000" font-family="sans-serif" font-size="14" lengthAdjust="spacing" textLength="77.8203" x="323.01" y="1139.7285">StatusModel</text><line style="stroke:#181818;stroke-width:0.5;" x1="295.01" x2="402.8303" y1="1150" y2="1150"/><text fill="#000000" font-family="sans-serif" font-size="14" lengthAdjust="spacing" textLength="37.748" x="300.01" y="1168.5332">+int id</text><text fill="#000000" font-family="sans-serif" font-size="14" lengthAdjust="spacing" textLength="83.6514" x="300.01" y="1186.1426">+string status</text><line style="stroke:#181818;stroke-width:0.5;" x1="295.01" x2="402.8303" y1="1193.2188" y2="1193.2188"/></g><!--class RolesModel--><g class="entity" data-qualified-name="RolesModel" data-source-line="102" id="ent0014"><rect fill="#F1F1F1" height="83.2188" rx="2.5" ry="2.5" style="stroke:#181818;stroke-width:0.5;" width="105.9238" x="1423.01" y="42.5"/><ellipse cx="1438.01" cy="58.5" fill="#ADD1B2" rx="11" ry="11" style="stroke:#181818;stroke-width:1;"/><path d="M1440.7756,54.375 Q1440.9319,54.1563 1441.1194,54.0469 Q1441.3069,53.9375 1441.5256,53.9375 Q1441.9006,53.9375 1442.135,54.2031 Q1442.3694,54.4531 1442.3694,55.0625 L1442.3694,56.5156 Q1442.3694,57.125 1442.135,57.3906 Q1441.9006,57.6563 1441.5256,57.6563 Q1441.1819,57.6563 1440.9788,57.4531 Q1440.7756,57.2656 1440.6663,56.75 Q1440.6194,56.3906 1440.4319,56.2031 Q1440.1038,55.8281 1439.4944,55.6094 Q1438.885,55.3906 1438.26,55.3906 Q1437.4944,55.3906 1436.8538,55.7188 Q1436.2288,56.0469 1435.7288,56.7969 Q1435.2444,57.5469 1435.2444,58.5781 L1435.2444,59.6719 Q1435.2444,60.9063 1436.135,61.7344 Q1437.0256,62.5469 1438.6194,62.5469 Q1439.5569,62.5469 1440.2131,62.2969 Q1440.6038,62.1406 1441.0256,61.7031 Q1441.2913,61.4375 1441.4319,61.3594 Q1441.5881,61.2813 1441.7913,61.2813 Q1442.1194,61.2813 1442.3694,61.5469 Q1442.635,61.7969 1442.635,62.1406 Q1442.635,62.4844 1442.2913,62.8906 Q1441.7913,63.4688 1440.9944,63.7969 Q1439.9163,64.25 1438.6194,64.25 Q1437.1038,64.25 1435.9006,63.625 Q1434.9163,63.125 1434.2288,62.0625 Q1433.5413,60.9844 1433.5413,59.7031 L1433.5413,58.5469 Q1433.5413,57.2188 1434.1506,56.0781 Q1434.7756,54.9219 1435.8694,54.3125 Q1436.9631,53.6875 1438.1975,53.6875 Q1438.9319,53.6875 1439.5725,53.8594 Q1440.2288,54.0156 1440.7756,54.375 Z " fill="#000000"/><text fill="#000000" font-family="sans-serif" font-size="14" lengthAdjust="spacing" textLength="73.9238" x="1452.01" y="64.2285">RolesModel</text><line style="stroke:#181818;stroke-width:0.5;" x1="1424.01" x2="1527.9338" y1="74.5" y2="74.5"/><text fill="#000000" font-family="sans-serif" font-size="14" lengthAdjust="spacing" textLength="37.748" x="1429.01" y="93.0332">+int id</text><text fill="#000000" font-family="sans-serif" font-size="14" lengthAdjust="spacing" textLength="81.3203" x="1429.01" y="110.6426">+string nome</text><line style="stroke:#181818;stroke-width:0.5;" x1="1424.01" x2="1527.9338" y1="117.7188" y2="117.7188"/></g><!--class KeyClockTipoUsuarioModel--><g class="entity" data-qualified-name="KeyClockTipoUsuarioModel" data-source-line="107" id="ent0015"><rect fill="#F1F1F1" height="100.8281" rx="2.5" ry="2.5" style="stroke:#181818;stroke-width:0.5;" width="204.7373" x="1373.51" y="274"/><ellipse cx="1388.51" cy="290" fill="#ADD1B2" rx="11" ry="11" style="stroke:#181818;stroke-width:1;"/><path d="M1391.2756,285.875 Q1391.4319,285.6563 1391.6194,285.5469 Q1391.8069,285.4375 1392.0256,285.4375 Q1392.4006,285.4375 1392.635,285.7031 Q1392.8694,285.9531 1392.8694,286.5625 L1392.8694,288.0156 Q1392.8694,288.625 1392.635,288.8906 Q1392.4006,289.1563 1392.0256,289.1563 Q1391.6819,289.1563 1391.4788,288.9531 Q1391.2756,288.7656 1391.1663,288.25 Q1391.1194,287.8906 1390.9319,287.7031 Q1390.6038,287.3281 1389.9944,287.1094 Q1389.385,286.8906 1388.76,286.8906 Q1387.9944,286.8906 1387.3538,287.2188 Q1386.7288,287.5469 1386.2288,288.2969 Q1385.7444,289.0469 1385.7444,290.0781 L1385.7444,291.1719 Q1385.7444,292.4063 1386.635,293.2344 Q1387.5256,294.0469 1389.1194,294.0469 Q1390.0569,294.0469 1390.7131,293.7969 Q1391.1038,293.6406 1391.5256,293.2031 Q1391.7913,292.9375 1391.9319,292.8594 Q1392.0881,292.7813 1392.2913,292.7813 Q1392.6194,292.7813 1392.8694,293.0469 Q1393.135,293.2969 1393.135,293.6406 Q1393.135,293.9844 1392.7913,294.3906 Q1392.2913,294.9688 1391.4944,295.2969 Q1390.4163,295.75 1389.1194,295.75 Q1387.6038,295.75 1386.4006,295.125 Q1385.4163,294.625 1384.7288,293.5625 Q1384.0413,292.4844 1384.0413,291.2031 L1384.0413,290.0469 Q1384.0413,288.7188 1384.6506,287.5781 Q1385.2756,286.4219 1386.3694,285.8125 Q1387.4631,285.1875 1388.6975,285.1875 Q1389.4319,285.1875 1390.0725,285.3594 Q1390.7288,285.5156 1391.2756,285.875 Z " fill="#000000"/><text fill="#000000" font-family="sans-serif" font-size="14" lengthAdjust="spacing" textLength="172.7373" x="1402.51" y="295.7285">KeyClockTipoUsuarioModel</text><line style="stroke:#181818;stroke-width:0.5;" x1="1374.51" x2="1577.2473" y1="306" y2="306"/><text fill="#000000" font-family="sans-serif" font-size="14" lengthAdjust="spacing" textLength="37.748" x="1379.51" y="324.5332">+int id</text><text fill="#000000" font-family="sans-serif" font-size="14" lengthAdjust="spacing" textLength="121.8096" x="1379.51" y="342.1426">+int tipo_usuario_id</text><text fill="#000000" font-family="sans-serif" font-size="14" lengthAdjust="spacing" textLength="68.8789" x="1379.51" y="359.752">+int role_id</text><line style="stroke:#181818;stroke-width:0.5;" x1="1374.51" x2="1577.2473" y1="366.8281" y2="366.8281"/></g><!--class TipoUsuario--><g class="entity" data-qualified-name="TipoUsuario" data-source-line="143" id="ent0039"><rect fill="#F1F1F1" height="48" rx="2.5" ry="2.5" style="stroke:#181818;stroke-width:0.5;" width="107.4756" x="1422.51" y="567"/><ellipse cx="1437.51" cy="583" fill="#ADD1B2" rx="11" ry="11" style="stroke:#181818;stroke-width:1;"/><path d="M1440.2756,578.875 Q1440.4319,578.6563 1440.6194,578.5469 Q1440.8069,578.4375 1441.0256,578.4375 Q1441.4006,578.4375 1441.635,578.7031 Q1441.8694,578.9531 1441.8694,579.5625 L1441.8694,581.0156 Q1441.8694,581.625 1441.635,581.8906 Q1441.4006,582.1563 1441.0256,582.1563 Q1440.6819,582.1563 1440.4788,581.9531 Q1440.2756,581.7656 1440.1663,581.25 Q1440.1194,580.8906 1439.9319,580.7031 Q1439.6038,580.3281 1438.9944,580.1094 Q1438.385,579.8906 1437.76,579.8906 Q1436.9944,579.8906 1436.3538,580.2188 Q1435.7288,580.5469 1435.2288,581.2969 Q1434.7444,582.0469 1434.7444,583.0781 L1434.7444,584.1719 Q1434.7444,585.4063 1435.635,586.2344 Q1436.5256,587.0469 1438.1194,587.0469 Q1439.0569,587.0469 1439.7131,586.7969 Q1440.1038,586.6406 1440.5256,586.2031 Q1440.7913,585.9375 1440.9319,585.8594 Q1441.0881,585.7813 1441.2913,585.7813 Q1441.6194,585.7813 1441.8694,586.0469 Q1442.135,586.2969 1442.135,586.6406 Q1442.135,586.9844 1441.7913,587.3906 Q1441.2913,587.9688 1440.4944,588.2969 Q1439.4163,588.75 1438.1194,588.75 Q1436.6038,588.75 1435.4006,588.125 Q1434.4163,587.625 1433.7288,586.5625 Q1433.0413,585.4844 1433.0413,584.2031 L1433.0413,583.0469 Q1433.0413,581.7188 1433.6506,580.5781 Q1434.2756,579.4219 1435.3694,578.8125 Q1436.4631,578.1875 1437.6975,578.1875 Q1438.4319,578.1875 1439.0725,578.3594 Q1439.7288,578.5156 1440.2756,578.875 Z " fill="#000000"/><text fill="#000000" font-family="sans-serif" font-size="14" lengthAdjust="spacing" textLength="75.4756" x="1451.51" y="588.7285">TipoUsuario</text><line style="stroke:#181818;stroke-width:0.5;" x1="1423.51" x2="1528.9856" y1="599" y2="599"/><line style="stroke:#181818;stroke-width:0.5;" x1="1423.51" x2="1528.9856" y1="607" y2="607"/></g><g class="entity" data-qualified-name="GMN41" data-source-line="146" id="ent0042"><path d="M638.51,71 L638.51,80 L603.4,84 L638.51,88 L638.51,97.3516 A0,0 0 0 0 638.51,97.3516 L1387.8782,97.3516 A0,0 0 0 0 1387.8782,97.3516 L1387.8782,81 L1377.8782,71 L638.51,71 A0,0 0 0 0 638.51,71" fill="#FEFFDD" style="stroke:#181818;stroke-width:0.5;"/><path d="M1377.8782,71 L1377.8782,81 L1387.8782,81 L1377.8782,71" fill="#FEFFDD" style="stroke:#181818;stroke-width:0.5;"/><text fill="#000000" font-family="sans-serif" font-size="13" lengthAdjust="spacing" textLength="728.3682" x="644.51" y="89.4951">Carrinho &#233; tratado como Pr&#233;-pedido (pr&#233;-reserva).\nQuando o usu&#225;rio finalizar, itens do carrinho s&#227;o convertidos em `Pedido`.</text></g><!--link UsuarioModel to FuncionarioModel--><g class="link" data-entity-1="ent0002" data-entity-2="ent0003" data-link-type="association" data-source-line="114" id="lnk16"><path codeLine="114" d="M358.82,400.92 C349.55,413.02 341.5,426.16 336.01,440 C325.57,466.27 329.44,496.5 337.55,522.91" fill="none" id="UsuarioModel-FuncionarioModel" style="stroke:#181818;stroke-width:1;"/><text fill="#000000" font-family="sans-serif" font-size="13" lengthAdjust="spacing" textLength="63.5972" x="337.01" y="454.4951">funcionario</text><text fill="#000000" font-family="sans-serif" font-size="13" lengthAdjust="spacing" textLength="7.23" x="343.6744" y="404.7265">1</text><text fill="#000000" font-family="sans-serif" font-size="13" lengthAdjust="spacing" textLength="21.6836" x="311.9826" y="512.0994">0..1</text></g><!--link FuncionarioModel to UsuarioModel--><g class="link" data-entity-1="ent0003" data-entity-2="ent0002" data-link-type="association" data-source-line="120" id="lnk21"><path codeLine="120" d="M388.04,522.86 C397.74,488.65 409.64,446.7 419.97,410.28" fill="none" id="FuncionarioModel-UsuarioModel" style="stroke:#181818;stroke-width:1;"/><text fill="#000000" font-family="sans-serif" font-size="13" lengthAdjust="spacing" textLength="42.6372" x="412.01" y="454.4951">usuario</text><text fill="#000000" font-family="sans-serif" font-size="13" lengthAdjust="spacing" textLength="21.6836" x="367.9949" y="512.044">0..1</text><text fill="#000000" font-family="sans-serif" font-size="13" lengthAdjust="spacing" textLength="7.23" x="410.6317" y="431.838">1</text></g><!--link UsuarioModel to PedidoModel--><g class="link" data-entity-1="ent0002" data-entity-2="ent0004" data-link-type="association" data-source-line="115" id="lnk17"><path codeLine="115" d="M358.96,340.56 C281.05,359.62 171.46,401.1 128.01,488 C87.06,569.89 87.06,612.11 128.01,694 C178.41,794.81 303.98,842.54 397.69,864.68" fill="none" id="UsuarioModel-PedidoModel" style="stroke:#181818;stroke-width:1;"/><text fill="#000000" font-family="sans-serif" font-size="13" lengthAdjust="spacing" textLength="45.5381" x="129.01" y="596.4951">pedidos</text><text fill="#000000" font-family="sans-serif" font-size="13" lengthAdjust="spacing" textLength="7.23" x="343.8273" y="356.2771">1</text><text fill="#000000" font-family="sans-serif" font-size="13" lengthAdjust="spacing" textLength="19.5127" x="370.4677" y="860.3482">0..*</text></g><!--link UsuarioModel to PedidoModel--><g class="link" data-entity-1="ent0002" data-entity-2="ent0004" data-link-type="association" data-source-line="116" id="lnk18"><path codeLine="116" d="M527.8,410.35 C545.47,433.65 561.38,460.21 570.01,488 C598.95,581.2 578.23,691.32 553.71,771.58" fill="none" id="UsuarioModel-PedidoModel-1" style="stroke:#181818;stroke-width:1;"/><text fill="#000000" font-family="sans-serif" font-size="13" lengthAdjust="spacing" textLength="108.3989" x="586.01" y="596.4951">entregasAtribuidas</text><text fill="#000000" font-family="sans-serif" font-size="13" lengthAdjust="spacing" textLength="7.23" x="527.4764" y="431.6206">1</text><text fill="#000000" font-family="sans-serif" font-size="13" lengthAdjust="spacing" textLength="19.5127" x="536.9703" y="760.9931">0..*</text></g><!--link PedidoModel to UsuarioModel--><g class="link" data-entity-1="ent0004" data-entity-2="ent0002" data-link-type="association" data-source-line="124" id="lnk24"><path codeLine="124" d="M397.99,836.99 C338.21,806.13 270.26,759.11 236.01,694 C193.38,612.97 195.87,570.29 236.01,488 C261.62,435.49 313.31,394.97 358.76,367.53" fill="none" id="PedidoModel-UsuarioModel" style="stroke:#181818;stroke-width:1;"/><text fill="#000000" font-family="sans-serif" font-size="13" lengthAdjust="spacing" textLength="42.6372" x="237.01" y="596.4951">usuario</text><text fill="#000000" font-family="sans-serif" font-size="13" lengthAdjust="spacing" textLength="21.6836" x="368.342" y="830.6263">0..1</text><text fill="#000000" font-family="sans-serif" font-size="13" lengthAdjust="spacing" textLength="7.23" x="343.8852" y="385.5738">1</text></g><!--link PedidoModel to UsuarioModel--><g class="link" data-entity-1="ent0004" data-entity-2="ent0002" data-link-type="association" data-source-line="125" id="lnk25"><path codeLine="125" d="M500.71,771.73 C491.98,682.01 478.44,552.67 463.01,440 C461.68,430.32 460.17,420.19 458.6,410.14" fill="none" id="PedidoModel-UsuarioModel-1" style="stroke:#181818;stroke-width:1;"/><text fill="#000000" font-family="sans-serif" font-size="13" lengthAdjust="spacing" textLength="49.8608" x="494.01" y="596.4951">motoboy</text><text fill="#000000" font-family="sans-serif" font-size="13" lengthAdjust="spacing" textLength="21.6836" x="478.3479" y="761.1531">0..1</text><text fill="#000000" font-family="sans-serif" font-size="13" lengthAdjust="spacing" textLength="7.23" x="452.5815" y="431.686">1</text></g><!--link UsuarioModel to ItemPedidoModel--><g class="link" data-entity-1="ent0002" data-entity-2="ent0005" data-link-type="association" data-source-line="117" id="lnk19"><path codeLine="117" d="M529.02,364.37 C592.09,394.68 679.06,439.63 750.01,488 C758.89,494.05 767.86,500.67 776.68,507.53" fill="none" id="UsuarioModel-ItemPedidoModel" style="stroke:#181818;stroke-width:1;"/><text fill="#000000" font-family="sans-serif" font-size="13" lengthAdjust="spacing" textLength="150.3062" x="704.01" y="454.4951">usuario_itens (via Pedido)</text><text fill="#000000" font-family="sans-serif" font-size="13" lengthAdjust="spacing" textLength="7.23" x="536.6548" y="364.6076">1</text><text fill="#000000" font-family="sans-serif" font-size="13" lengthAdjust="spacing" textLength="19.5127" x="749.5704" y="497.7308">0..*</text></g><!--link UsuarioModel to CarrinhoModel--><g class="link" data-entity-1="ent0002" data-entity-2="ent0008" data-link-type="association" data-source-line="118" id="lnk20"><path codeLine="118" d="M432.71,238.87 C433.13,222.62 435.45,206 441.01,191 C445.72,178.26 452.73,166.03 460.8,154.68" fill="none" id="UsuarioModel-CarrinhoModel" style="stroke:#181818;stroke-width:1;"/><text fill="#000000" font-family="sans-serif" font-size="13" lengthAdjust="spacing" textLength="46.9663" x="442.01" y="205.4951">carrinho</text><text fill="#000000" font-family="sans-serif" font-size="13" lengthAdjust="spacing" textLength="7.23" x="424.4213" y="228.03">1</text><text fill="#000000" font-family="sans-serif" font-size="13" lengthAdjust="spacing" textLength="19.5127" x="433.5251" y="158.6748">0..*</text></g><!--link CarrinhoModel to UsuarioModel--><g class="link" data-entity-1="ent0008" data-entity-2="ent0002" data-link-type="association" data-source-line="134" id="lnk32"><path codeLine="134" d="M509.37,161.15 C504.28,177.06 498.69,193.66 493.01,209 C489.4,218.73 485.43,228.84 481.35,238.84" fill="none" id="CarrinhoModel-UsuarioModel" style="stroke:#181818;stroke-width:1;"/><text fill="#000000" font-family="sans-serif" font-size="13" lengthAdjust="spacing" textLength="42.6372" x="500.01" y="205.4951">usuario</text><text fill="#000000" font-family="sans-serif" font-size="13" lengthAdjust="spacing" textLength="19.5127" x="487.5493" y="182.2598">0..*</text><text fill="#000000" font-family="sans-serif" font-size="13" lengthAdjust="spacing" textLength="7.23" x="477.3933" y="227.9974">1</text></g><!--link PedidoModel to ItemPedidoModel--><g class="link" data-entity-1="ent0004" data-entity-2="ent0005" data-link-type="association" data-source-line="122" id="lnk22"><path codeLine="122" d="M624.2,794.97 C664.22,763.46 709.37,727.46 750.01,694 C758.72,686.82 767.74,679.29 776.73,671.71" fill="none" id="PedidoModel-ItemPedidoModel" style="stroke:#181818;stroke-width:1;"/><text fill="#000000" font-family="sans-serif" font-size="13" lengthAdjust="spacing" textLength="27.46" x="713.01" y="738.4951">itens</text><text fill="#000000" font-family="sans-serif" font-size="13" lengthAdjust="spacing" textLength="7.23" x="631.6947" y="786.2574">1</text><text fill="#000000" font-family="sans-serif" font-size="13" lengthAdjust="spacing" textLength="19.5127" x="749.6243" y="674.9939">0..*</text></g><!--link ItemPedidoModel to PedidoModel--><g class="link" data-entity-1="ent0005" data-entity-2="ent0004" data-link-type="association" data-source-line="131" id="lnk30"><path codeLine="131" d="M795.61,694.15 C781.16,711.11 765.37,727.78 749.01,742 C711.58,774.53 665.63,803.75 624.11,827.05" fill="none" id="ItemPedidoModel-PedidoModel" style="stroke:#181818;stroke-width:1;"/><text fill="#000000" font-family="sans-serif" font-size="13" lengthAdjust="spacing" textLength="39.0381" x="770.01" y="738.4951">pedido</text><text fill="#000000" font-family="sans-serif" font-size="13" lengthAdjust="spacing" textLength="21.6836" x="768.1977" y="716.15">0..1</text><text fill="#000000" font-family="sans-serif" font-size="13" lengthAdjust="spacing" textLength="7.23" x="631.5989" y="820.3925">1</text></g><!--link PedidoModel to StatusModel--><g class="link" data-entity-1="ent0004" data-entity-2="ent0013" data-link-type="association" data-source-line="123" id="lnk23"><path codeLine="123" d="M397.99,994.26 C390.54,1004.51 383.74,1015.14 378.01,1026 C362.94,1054.53 355.7,1090.47 352.21,1117.72" fill="none" id="PedidoModel-StatusModel" style="stroke:#181818;stroke-width:1;"/><text fill="#000000" font-family="sans-serif" font-size="13" lengthAdjust="spacing" textLength="128.6289" x="379.01" y="1040.4951">statusRelacionamento</text><text fill="#000000" font-family="sans-serif" font-size="13" lengthAdjust="spacing" textLength="21.6836" x="368.342" y="998.9543">0..1</text><text fill="#000000" font-family="sans-serif" font-size="13" lengthAdjust="spacing" textLength="7.23" x="345.1948" y="1107.292">1</text></g><!--link PedidoModel to EnderecoModel--><g class="link" data-entity-1="ent0004" data-entity-2="ent0010" data-link-type="association" data-source-line="126" id="lnk26"><path codeLine="126" d="M397.9,897.98 C317.58,913.76 215.09,948.69 163.01,1026 C153.56,1040.03 149.78,1056.92 149.2,1073.88" fill="none" id="PedidoModel-EnderecoModel" style="stroke:#181818;stroke-width:1;"/><text fill="#000000" font-family="sans-serif" font-size="13" lengthAdjust="spacing" textLength="54.209" x="164.01" y="1040.4951">endereco</text><text fill="#000000" font-family="sans-serif" font-size="13" lengthAdjust="spacing" textLength="21.6836" x="368.2457" y="895.9046">0..1</text><text fill="#000000" font-family="sans-serif" font-size="13" lengthAdjust="spacing" textLength="7.23" x="140.3862" y="1063.0409">1</text></g><!--link EnderecoModel to PedidoModel--><g class="link" data-entity-1="ent0010" data-entity-2="ent0004" data-link-type="association" data-source-line="139" id="lnk36"><path codeLine="139" d="M237.26,1093.02 C261.78,1071.18 289.69,1047.06 316.01,1026 C342.02,1005.19 370.75,983.66 397.98,963.88" fill="none" id="EnderecoModel-PedidoModel" style="stroke:#181818;stroke-width:1;"/><text fill="#000000" font-family="sans-serif" font-size="13" lengthAdjust="spacing" textLength="45.5381" x="317.01" y="1040.4951">pedidos</text><text fill="#000000" font-family="sans-serif" font-size="13" lengthAdjust="spacing" textLength="7.23" x="245.4297" y="1082.3736">1</text><text fill="#000000" font-family="sans-serif" font-size="13" lengthAdjust="spacing" textLength="19.5127" x="370.3956" y="966.4382">0..*</text></g><!--link PedidoModel to MesaModel--><g class="link" data-entity-1="ent0004" data-entity-2="ent0009" data-link-type="association" data-source-line="127" id="lnk27"><path codeLine="127" d="M514.26,996.24 C515.3,1031.88 516.41,1069.92 517.3,1100.2" fill="none" id="PedidoModel-MesaModel" style="stroke:#181818;stroke-width:1;"/><text fill="#000000" font-family="sans-serif" font-size="13" lengthAdjust="spacing" textLength="31.7891" x="517.01" y="1040.4951">mesa</text><text fill="#000000" font-family="sans-serif" font-size="13" lengthAdjust="spacing" textLength="21.6836" x="492.8293" y="1017.4463">0..1</text><text fill="#000000" font-family="sans-serif" font-size="13" lengthAdjust="spacing" textLength="7.23" x="509.6974" y="1089.4877">1</text></g><!--link PedidoModel to FormaPagamentoModel--><g class="link" data-entity-1="ent0004" data-entity-2="ent0012" data-link-type="association" data-source-line="128" id="lnk28"><path codeLine="128" d="M596.42,996.24 C629.46,1039.28 665.19,1085.81 689.88,1117.96" fill="none" id="PedidoModel-FormaPagamentoModel" style="stroke:#181818;stroke-width:1;"/><text fill="#000000" font-family="sans-serif" font-size="13" lengthAdjust="spacing" textLength="99.7217" x="630.01" y="1040.4951">formaPagamento</text><text fill="#000000" font-family="sans-serif" font-size="13" lengthAdjust="spacing" textLength="21.6836" x="580.2527" y="1017.4463">0..1</text><text fill="#000000" font-family="sans-serif" font-size="13" lengthAdjust="spacing" textLength="7.23" x="677.1481" y="1107.2611">1</text></g><!--link ItemPedidoModel to ProdutoModel--><g class="link" data-entity-1="ent0005" data-entity-2="ent0006" data-link-type="association" data-source-line="130" id="lnk29"><path codeLine="130" d="M906.93,694.19 C919.57,728.25 933.51,765.8 945.6,798.38" fill="none" id="ItemPedidoModel-ProdutoModel" style="stroke:#181818;stroke-width:1;"/><text fill="#000000" font-family="sans-serif" font-size="13" lengthAdjust="spacing" textLength="44.0908" x="924.01" y="738.4951">produto</text><text fill="#000000" font-family="sans-serif" font-size="13" lengthAdjust="spacing" textLength="21.6836" x="887.9545" y="715.8458">0..1</text><text fill="#000000" font-family="sans-serif" font-size="13" lengthAdjust="spacing" textLength="7.23" x="935.4816" y="787.5409">1</text></g><!--link ProdutoModel to CategoriaProdutoModel--><g class="link" data-entity-1="ent0006" data-entity-2="ent0007" data-link-type="association" data-source-line="133" id="lnk31"><path codeLine="133" d="M977.01,969.66 C977.01,1018.93 977.01,1078.79 977.01,1117.72" fill="none" id="ProdutoModel-CategoriaProdutoModel" style="stroke:#181818;stroke-width:1;"/><text fill="#000000" font-family="sans-serif" font-size="13" lengthAdjust="spacing" textLength="53.479" x="978.01" y="1040.4951">categoria</text><text fill="#000000" font-family="sans-serif" font-size="13" lengthAdjust="spacing" textLength="19.5127" x="957.1968" y="991.2077">0..*</text><text fill="#000000" font-family="sans-serif" font-size="13" lengthAdjust="spacing" textLength="7.23" x="969.481" y="1107.292">1</text></g><!--link CarrinhoModel to ProdutoModel--><g class="link" data-entity-1="ent0008" data-entity-2="ent0006" data-link-type="association" data-source-line="135" id="lnk33"><path codeLine="135" d="M603.16,146.61 C726.51,253.78 967.93,465.32 978.01,488 C1022.2,587.49 1011.2,715.49 996.46,798.37" fill="none" id="CarrinhoModel-ProdutoModel" style="stroke:#181818;stroke-width:1;"/><text fill="#000000" font-family="sans-serif" font-size="13" lengthAdjust="spacing" textLength="44.0908" x="952.01" y="454.4951">produto</text><text fill="#000000" font-family="sans-serif" font-size="13" lengthAdjust="spacing" textLength="19.5127" x="610.6381" y="149.1715">0..*</text><text fill="#000000" font-family="sans-serif" font-size="13" lengthAdjust="spacing" textLength="7.23" x="990.8713" y="787.53">1</text></g><!--link EnderecoModel to CidadeModel--><g class="link" data-entity-1="ent0010" data-entity-2="ent0011" data-link-type="association" data-source-line="137" id="lnk34"><path codeLine="137" d="M166.01,1245.12 C166.01,1271.99 166.01,1300.49 166.01,1322.79" fill="none" id="EnderecoModel-CidadeModel" style="stroke:#181818;stroke-width:1;"/><text fill="#000000" font-family="sans-serif" font-size="13" lengthAdjust="spacing" textLength="38.3081" x="167.01" y="1289.4951">cidade</text><text fill="#000000" font-family="sans-serif" font-size="13" lengthAdjust="spacing" textLength="19.5127" x="146.201" y="1266.6643">0..*</text><text fill="#000000" font-family="sans-serif" font-size="13" lengthAdjust="spacing" textLength="7.23" x="158.4083" y="1312.0629">1</text></g><!--link EnderecoModel to UsuarioModel--><g class="link" data-entity-1="ent0010" data-entity-2="ent0002" data-link-type="association" data-source-line="138" id="lnk35"><path codeLine="138" d="M130.38,1073.87 C80.8,942.75 6,685.09 90.01,488 C133.82,385.2 268.57,347.41 358.61,333.53" fill="none" id="EnderecoModel-UsuarioModel" style="stroke:#181818;stroke-width:1;"/><text fill="#000000" font-family="sans-serif" font-size="13" lengthAdjust="spacing" textLength="42.6372" x="55.01" y="738.4951">usuario</text><text fill="#000000" font-family="sans-serif" font-size="13" lengthAdjust="spacing" textLength="19.5127" x="107.3683" y="1063.03">0..*</text><text fill="#000000" font-family="sans-serif" font-size="13" lengthAdjust="spacing" textLength="7.23" x="343.7218" y="331.1207">1</text></g><!--link RolesModel to KeyClockTipoUsuarioModel--><g class="link" data-entity-1="ent0014" data-entity-2="ent0015" data-link-type="association" data-source-line="141" id="lnk37"><path codeLine="141" d="M1437.79,125.64 C1416.92,148.91 1394.26,176.32 1389.01,191 C1386.31,198.53 1386.45,201.42 1389.01,209 C1396.93,232.54 1411.84,255.08 1427.11,273.84" fill="none" id="RolesModel-KeyClockTipoUsuarioModel" style="stroke:#181818;stroke-width:1;"/><text fill="#000000" font-family="sans-serif" font-size="13" lengthAdjust="spacing" textLength="126.4326" x="1390.01" y="205.4951">keyclockTipoUsuarios</text><text fill="#000000" font-family="sans-serif" font-size="13" lengthAdjust="spacing" textLength="7.23" x="1423.9055" y="147.3677">1</text><text fill="#000000" font-family="sans-serif" font-size="13" lengthAdjust="spacing" textLength="19.5127" x="1399.952" y="263.1229">0..*</text></g><!--link KeyClockTipoUsuarioModel to RolesModel--><g class="link" data-entity-1="ent0015" data-entity-2="ent0014" data-link-type="association" data-source-line="142" id="lnk38"><path codeLine="142" d="M1506.12,273.99 C1517.61,249.44 1526.72,219.09 1521.01,191 C1516.42,168.47 1506.87,144.79 1497.75,125.54" fill="none" id="KeyClockTipoUsuarioModel-RolesModel" style="stroke:#181818;stroke-width:1;"/><text fill="#000000" font-family="sans-serif" font-size="13" lengthAdjust="spacing" textLength="28.1772" x="1524.01" y="205.4951">roles</text><text fill="#000000" font-family="sans-serif" font-size="13" lengthAdjust="spacing" textLength="21.6836" x="1487.9442" y="263.294">0..1</text><text fill="#000000" font-family="sans-serif" font-size="13" lengthAdjust="spacing" textLength="7.23" x="1493.7964" y="147.2512">1</text></g><!--link KeyClockTipoUsuarioModel to TipoUsuario--><g class="link" data-entity-1="ent0015" data-entity-2="ent0039" data-link-type="association" data-source-line="143" id="lnk40"><path codeLine="143" d="M1476.01,375.25 C1476.01,432.57 1476.01,524.3 1476.01,566.89" fill="none" id="KeyClockTipoUsuarioModel-TipoUsuario" style="stroke:#181818;stroke-width:1;"/><text fill="#000000" font-family="sans-serif" font-size="13" lengthAdjust="spacing" textLength="65.7554" x="1477.01" y="454.4951">tipoUsuario</text><text fill="#000000" font-family="sans-serif" font-size="13" lengthAdjust="spacing" textLength="21.6836" x="1453.7253" y="396.306">0..1</text><text fill="#000000" font-family="sans-serif" font-size="13" lengthAdjust="spacing" textLength="7.23" x="1468.0817" y="556.202">1</text></g><?plantuml-src bLR1RjGm4BtxAwoz52WjSCsjggY445AXS4CAiydirghZ2RQpKelu6CG1yG5ymVuOTk8azkuctPus7llDZDyypwov4we63HKl91XpOQqMoyRYkuBKZNX0_fgnTeT_CGreGH-eHCb_CCvFXR9SbFxBE9HQSqKLHakiGCXeRL3TGhIsA7552djVLjIKDrsOF77SQ9cB2jPOvJNgbVFwiq_hgb6583MPclzAVUw6Ci6-99By5amELcp8MqeiN5J93KX_S0nwZQKednAl8ajBkW-M4YnQKU5WtWXLD19Aoh4Q86WWyc0isCRiNg66DLIeR1-hptW3adHkoK9S05eQr1ie2Cs8xFsXAb5ZqNeQBlhEOZLpsJvStG8R9MpBqruYBjWGvti3oeeIobWguNObv0LLe4f8QFBmm4muFzwxGalbuBpML3OsPhvkiqykTTqTEaR9oGMZ_H9DeKK1iIq8r6brK5CfJ4rAR53sKGftfpLf0Kb6bxtrsDGYf7RMswTeSP-ZWoNfnGAqN-bEM4CI7vnK9nDGJOMQV6czelTgli_ouFPjKEGS6vBMshsRHiULw4961YUgMk8Wzs1TWj1wa4xH4f0VP6wakprqV7ckI5TmtOjr3fS-vz73JSlI73BmE20-aKHpV8hlyVvIKd7tsIKmr-CdEhGtQnSnq7J2J_dYX5yOGuM0xP_jFpJy5QyQwR1IT2IRXJjrmf9eYpSBVdR65w_FpztNNbVF-6eqJI9VB9BMd8NNRuu7EF8rhi4DGZy7NRQpsDtsc8sYiQWCVxOH408yd_EJlkBCTObkpTWU4O4WZtK_YSyXEcDnKe-btAQQ8f8OiGApeBPFAA7DgrFhD7WYmQC1OKBE0D8kaGrpR0Oozgki7RCpHmyzOAV5nChOBgcfZwIfPtt_VGnqGCUkhh6hKD40E3n3id7Yi5HbANgYJdEGYMknj20xIKRzCmijTnOmaTSEv8WEmAAsc9wVR80PlyFxOcVBiCdpQG6ZU5dR8Oz6HjiEQiSLOueiSYtMjvRJAcqRhXdtQxxzowq6wmQZ7ttaIhNzUzOnmP_LVg6ndUxFpx-gZsxwEpjvShU_VD2LK2350-YNNNFWta_lssn_UwzgWzfwPjtVVFwju_pRENElZ_iasNy0?></g></svg>